<svg xmlns="http://www.w3.org/2000/svg" width="636" height="636" viewBox="0 0 636 636">
    <path d="M318.069433,87.5651459 C322.266508,87.5651459 326.269661,88.9902431 329.477157,91.5138674 L522.752586,213.591143 C526.925698,216.229433 529.864934,220.422609 530.928275,225.237739 C531.991616,230.052869 531.068716,235.098724 528.3903,239.241742 L477.343671,317.986146 L528.370237,396.766715 C531.048653,400.909733 531.961522,405.945556 530.908212,410.760686 C529.854902,415.575816 526.905635,419.768992 522.742554,422.407282 L327.980576,545.574296 C325.269401,547.282335 322.216283,548.225072 319.129273,548.395171 C319.099102,548.396187 319.06875,548.39809 319.038385,548.399919 C319.020605,548.400848 319.002935,548.401709 318.985265,548.402545 C318.763906,548.415732 318.541763,548.424457 318.319028,548.429161 L317.928992,548.433279 C313.712856,548.433279 309.692407,546.995208 306.477616,544.450106 L113.245839,422.407282 C109.072727,419.768992 106.133491,415.575816 105.07015,410.760686 C104.006809,405.945556 104.929709,400.899701 107.608125,396.756683 L158.651671,318.009146 L107.628188,239.23171 C104.949772,235.088692 104.036903,230.052869 105.090213,225.237739 C106.143523,220.422609 109.09279,216.229433 113.255871,213.591143 L308.027881,90.4241294 C311.065496,88.5003066 314.527246,87.5473955 317.985027,87.5653962 L318.059402,87.5651459 L318.059402,87.5651459 L318.069433,87.5651459 Z M318.069433,139.969811 L202.643671,318.038146 L317.928992,496.028614 L433.350671,317.960146 L318.069433,139.969811 Z M455.346671,351.921146 L379.071671,469.586146 L487.251033,401.180584 L455.346671,351.921146 Z M180.648671,351.970146 L148.757423,401.170552 L256.657671,469.323146 L180.648671,351.970146 Z M256.901671,166.436146 L148.747392,234.827873 L180.646671,284.077146 L256.901671,166.436146 Z M379.352671,166.695146 L455.347671,284.025146 L487.23097,234.837904 L379.352671,166.695146 Z">
      <animateTransform
        attributeName="transform"
        attributeType="XML"
        type="rotate"
        begin="0s"
        from="0 318 318"
        to="360 318 318"
        dur="18s"
        repeatDur="indefinite"/>
    </path>
    <path d="M317.999212,635.998425 C142.654417,635.998425 0,493.341752 0,317.994182 C0,142.646612 142.654417,0 317.999212,0 C493.344008,0 635.998425,142.656673 635.998425,318.004243 C635.998425,493.351813 493.344008,635.998425 317.999212,635.998425 Z M317.999212,37.0275468 C163.079615,37.0275468 37.0370227,163.072133 37.0370227,317.994182 C37.0370227,472.91623 163.079615,598.960816 317.999212,598.960816 C472.91881,598.960816 598.961402,472.926292 598.961402,317.994182 C598.961402,163.062071 472.91881,37.0275468 317.999212,37.0275468 Z"/>
</svg>
